<?xml version="1.0" encoding="iso-8859-1"?>
<!-- Generator: Adobe Illustrator 19.0.0, SVG Export Plug-In . SVG Version: 6.00 Build 0)  -->
<svg version="1.1" id="Layer_1" xmlns="http://www.w3.org/2000/svg" xmlns:xlink="http://www.w3.org/1999/xlink" x="0px" y="0px"
	 viewBox="0 0 512 512" style="enable-background:new 0 0 512 512;" xml:space="preserve">
<g>
	<g>
		<path d="M500.146,11.928C487.408-0.883,462.448,0.033,444.365,0.006c-0.033,0-0.061,0-0.094,0c-18.1,0-35.124,7.059-47.933,19.875
			L143.06,273.038l-50.961-10.191c-5.553-1.092-11.3,0.628-15.315,4.643L4.954,339.435c-4.411,4.417-6.033,10.908-4.224,16.88
			c1.814,5.978,6.766,10.472,12.888,11.696l108.639,21.733l21.733,108.639c1.224,6.121,5.718,11.074,11.696,12.888
			c1.616,0.491,3.271,0.728,4.914,0.728c4.423,0,8.747-1.731,11.967-4.951l71.945-71.829c4.014-4.004,5.757-9.75,4.643-15.315
			l-10.191-50.961l253.157-253.278c12.838-12.838,19.897-29.894,19.87-48.027C511.964,49.555,512.885,24.595,500.146,11.928z"/>
	</g>
</g>
<g>
	<g>
		<path d="M68.742,46.015c-5.377-0.893-10.892,0.861-14.763,4.731L6.091,98.629c-4.025,4.025-5.763,9.806-4.616,15.38
			c1.142,5.582,5.012,10.209,10.301,12.326l164.328,65.767L286.032,82.23L68.742,46.015z"/>
	</g>
</g>
<g>
	<g>
		<path d="M465.987,443.26L429.774,225.97L319.901,335.898l65.767,164.328c2.118,5.289,6.745,9.159,12.325,10.301
			c1.131,0.232,2.272,0.348,3.403,0.348c4.445,0,8.769-1.754,11.977-4.964l47.884-47.889
			C465.128,454.156,466.886,448.658,465.987,443.26z"/>
	</g>
</g>
<g>
</g>
<g>
</g>
<g>
</g>
<g>
</g>
<g>
</g>
<g>
</g>
<g>
</g>
<g>
</g>
<g>
</g>
<g>
</g>
<g>
</g>
<g>
</g>
<g>
</g>
<g>
</g>
<g>
</g>
</svg>
